<svg fill="none" height="211" viewBox="0 0 211 211" width="211" xmlns="http://www.w3.org/2000/svg"><g fill="#3b4652"><path d="m183.858 82.337c-.411 0-.864-.0823-1.275-.288-1.44-.6992-2.016-2.4268-1.316-3.8665 5.799-11.6817 8.761-24.2683 8.761-37.4308 0-9.296-1.522-18.4275-4.484-27.1477-.493-1.5219.288-3.1261 1.81-3.66079 1.522-.49359 3.126.28789 3.661 1.80989 3.167 9.3371 4.771 19.0856 4.771 28.9986 0 14.0263-3.126 27.4767-9.337 39.9811-.493 1.0283-1.522 1.6042-2.591 1.6042zm-156.7161 0c-1.0695 0-2.0978-.5759-2.5914-1.6042-6.211-12.5044-9.3371-25.9548-9.3371-39.9811 0-9.913 1.6042-19.6615 4.7714-28.9986.4936-1.522 2.1389-2.30348 3.6608-1.80989s2.3034 2.13889 1.8099 3.66079c-2.9616 8.7202-4.4835 17.8517-4.4835 27.1477 0 13.1214 2.9615 25.708 8.7613 37.4308.6992 1.4397.1234 3.1673-1.3163 3.8665-.4113.2057-.8638.288-1.2751.288z"/><path d="m165.266 73.1233c-.412 0-.864-.0823-1.275-.288-1.44-.6992-2.016-2.4268-1.317-3.8664 4.361-8.8436 6.582-18.3453 6.582-28.2172 0-6.9925-1.152-13.9028-3.373-20.4841-.494-1.5219.288-3.1261 1.81-3.6608 1.522-.4936 3.126.2879 3.66 1.8098 2.427 7.1571 3.661 14.6844 3.661 22.3351 0 10.7768-2.427 21.1423-7.198 30.7674-.494 1.0283-1.522 1.6042-2.55 1.6042zm-119.5322 0c-1.0694 0-2.0977-.5759-2.5913-1.6042-4.7303-9.6251-7.1571-19.9906-7.1571-30.7674 0-7.6507 1.2339-15.1368 3.6608-22.3351.4936-1.5219 2.1389-2.3034 3.6608-1.8098s2.3034 2.1389 1.8098 3.6608c-2.2211 6.5813-3.3729 13.4504-3.3729 20.4841 0 9.9131 2.2212 19.3736 6.5813 28.2172.6993 1.4396.1234 3.1672-1.3163 3.8664-.3701.2057-.8226.288-1.2751.288z"/><path d="m146.633 63.9506c-.412 0-.864-.0823-1.275-.2879-1.44-.6993-2.016-2.4269-1.317-3.8665 2.962-5.9643 4.443-12.3399 4.443-19.0034 0-4.7303-.782-9.3783-2.263-13.7795-.493-1.5219.288-3.1261 1.81-3.6608 1.522-.4936 3.126.2879 3.661 1.8099 1.728 5.0182 2.591 10.2832 2.591 15.6304 0 7.5685-1.686 14.8078-5.059 21.5948-.535.946-1.563 1.563-2.591 1.563zm-82.266 0c-1.0694 0-2.0978-.5759-2.5914-1.6042-3.3317-6.7458-5.0593-14.0263-5.0593-21.5947 0-5.3473.8638-10.6123 2.5914-15.6305.4936-1.5219 2.1389-2.3034 3.6608-1.8098s2.3034 2.1389 1.8098 3.6608c-1.5219 4.4423-2.2623 9.0903-2.2623 13.7795 0 6.6635 1.4808 13.0802 4.4424 19.0034.6992 1.4396.1234 3.1672-1.3163 3.8664-.4113.2057-.8226.3291-1.2751.3291z"/></g><path d="m130.591 40.7517c0 3.9898-.946 7.7741-2.591 11.1058-1.851 3.7431-4.607 6.9926-8.021 9.3783-4.072 2.9204-9.091 4.6069-14.479 4.6069s-10.4066-1.6865-14.4788-4.6069c-3.3729-2.3857-6.1699-5.6352-8.0209-9.3783-1.6453-3.3317-2.5914-7.116-2.5914-11.1058 0-2.8382.4525-5.5118 1.3163-8.0621 3.3729-9.913 12.71-17.029 23.7748-17.029 11.065 0 20.402 7.116 23.775 17.029.822 2.5503 1.316 5.265 1.316 8.0621z" fill="#f46262"/><path d="m136.761 111.13-8.72-25.9138h-45.0818l-8.7202 25.9138z" fill="#3b4652"/><path d="m147.414 142.802-8.72-25.914h-66.3884l-8.7202 25.914z" fill="#f46262"/><path d="m155.805 167.811-6.458-19.25h-87.6947l-6.4578 19.25-11.3527 33.77h27.3533l8.2677-33.77h52.0742l8.268 33.77h27.353z" fill="#3b4652"/><path d="m126.107 79.4576h-41.2147l4.2367-12.5455c4.8948 3.085 10.53 4.7303 16.371 4.7303s11.476-1.6453 16.371-4.7303z" fill="#f46262"/></svg>