<svg height="64" preserveAspectRatio="none" viewBox="0 0 64 64" width="64" xmlns="http://www.w3.org/2000/svg" xmlns:xlink="http://www.w3.org/1999/xlink"><linearGradient id="a"><stop offset="0" stop-color="#df7000"/><stop offset="1" stop-color="#9f3900"/></linearGradient><linearGradient id="b" gradientUnits="userSpaceOnUse" x1="32.234375" x2="36.550121" xlink:href="#a" y1="10.881348" y2="56.237259"/><linearGradient id="c" gradientUnits="userSpaceOnUse" x1="31.999512" x2="31.99951" xlink:href="#a" y1="17.373047" y2="50.091335"/><linearGradient id="d" gradientUnits="userSpaceOnUse" x1="47.90625" x2="51.887817" xlink:href="#a" y1="15.92334" y2="57.767208"/><path d="m54.4179688 53.6542969c0 1.0996094-.9003906 2-2 2h-36.7373047c-1.1000977 0-2-.9003906-2-2v-47.3930664c0-1.1000977.8999023-2 2-2h36.7373047c1.0996094 0 2 .8999023 2 2z" fill="url(#b)"/><path d="m52.4179688 56.1542969h-36.7373047c-1.378418 0-2.5-1.1210938-2.5-2.5v-47.3930664c0-1.378418 1.121582-2.5 2.5-2.5h36.7373047c1.3789063 0 2.5 1.121582 2.5 2.5v47.3930664c0 1.3789062-1.1210938 2.5-2.5 2.5zm-36.7373047-51.3930664c-.8271484 0-1.5.6728516-1.5 1.5v47.3930664c0 .8271484.6728516 1.5 1.5 1.5h36.7373047c.8271484 0 1.5-.6728516 1.5-1.5v-47.3930664c0-.8271484-.6728516-1.5-1.5-1.5z" fill="#231815"/><path d="m53.6953125 9.7675781h-43.0224609l5.2900391-4.2104492h37.7324219v4.2104492zm-40.1220703-1.0136718h39.1083984v-2.1831055h-36.3652343z" fill="#350d07"/><path d="m53.1884766 9.2607422h-41.0654297l4.0166015-3.1967774h37.0488282z" fill="#fff"/><path d="m51.7763672 6.7436523c-.8007813.753418-2.3574219 1.3696289-3.4570313 1.3696289h-36.7373046c-1.1000977 0-2 .8999023-2 2v47.3925781c0 1.0996094.8999023 2 2 2h36.7373047c1.0996094 0 2.65625-.6162109 3.4570313-1.3691406l1.1845703-1.1132813c.8007813-.7529297 1.4570313-2.2695313 1.4570313-3.3691406v-47.3930663c0-1.1000977-.65625-1.3837891-1.4570313-.6303711z" fill="url(#c)"/><g opacity=".5"><path d="m49.581055 8.195313v50.655273" fill="url(#d)"/><path d="m49.074219 8.195313h1.013672v50.655273h-1.013672z" fill="#54190e"/></g><g fill="#470802"><path d="m20.1303711 21.3710938h-.730957c-.0297852 0-.0693359.0146484-.0693359-.0898438v-1.0810547c0-.0600586.0131836-.1503906.065918-.1503906h3.5507813c.1557617 0 2.3110352.3979492 2.3110352 2.8076172 0 2.4018555-1.7358398 2.8222656-2.4760742 2.8222656h-3.3134766c-.0654297 0-.1381836 0-.1381836-.1875v-.8935547c0-.1123047.0063477-.2548828.0727539-.2548828h.7275391v-2.9726562zm1.6821289 2.9726562h.6088867c.3803711 0 .9521484-.4731445.9521484-1.4863281 0-1.0585938-.625-1.4863281-.7871094-1.4863281h-.7739257z"/><path d="m28.0488281 24.53125c.0268555 0 .043457.0454102.043457.0825195v.9912109c0 .0600586-.0166016.074707-.043457.074707h-2.5390625c-.0195313 0-.0327148-.0673828-.0327148-.1049805v-.9682617c0-.0454102.0229492-.0751953.0395508-.0751953h.5849609v-1.6962891h-.5649414c-.0366211 0-.0595703-.0229492-.0595703-.0751953v-.9379883c0-.090332.0195313-.1430664.0527344-.1430664h1.9140625c.0268555 0 .043457.0375977.043457.0756836v2.7768556zm-.7373047-4.4814453c.0366211 0 .0629883.0302734.0629883.112793v1.0356445c0 .0454102-.0131836.0976563-.0463867.0976563h-1.0581055c-.0263672 0-.0429688-.0073242-.0429688-.0600586v-1.1186523c0-.0297852.0166016-.0673828.0463867-.0673828h1.038086z"/><path d="m31.9804688 24.140625c0 .0380859.0390625.4057617.2373047.4057617.2412109 0 .2578125-.5703125.2578125-.6005859 0-.0375977.0107422-.0673828.0302734-.0673828h.4130859c.0068359 0 .0136719.0146484.0136719.0375977 0 1.3056641-.4794922 1.7636719-.8232422 1.7636719h-.9223633c-.3110352 0-.5424805-.3901367-.6323242-.7280273-.1650391.5405273-.7631836.7431641-.8955078.7431641-.4003906 0-1.3691406-.0825195-1.3691406-1.1782227 0-1.1040039 1.0712891-1.2612305 1.2207031-1.2612305h.5649414c.1552734 0 .4731445-.090332.4731445-.300293 0-.2480469-.1723633-.3452148-.3139648-.3452148h-.4135742c-.1557617 0-.3735352.3222656-.453125.3979492-.0859375.0825195-.4628906.284668-.5952148.284668-.1191406 0-.4594727-.1420898-.4594727-.6977539 0-.8330078.6811523-.9384766 1.7421875-.9384766 1.2001953 0 1.9248047.1425781 1.9248047 1.3740234zm-1.4389649-.6523437h-.0058594c-.0366211.1201172-.1557617.375-.3007813.4501953-.2387695.1201172-.4267578.1723633-.4267578.4580078 0 .1645508.1450195.1801758.1982422.1801758.2807617 0 .5351563-.1801758.5351563-.7807617z"/><path d="m36.171875 21.65625c.2304688 0 .5888672.3530273.5888672.9306641 0 .5410156-.2480469.8408203-.4804688.8408203-.2275391 0-.3896484-.2402344-.4794922-.3754883-.0888672-.1420898-.1777344-.1948242-.2832031-.1948242-.1494141 0-.4404297.2851563-.4404297.8027344v.8637695h.5693359c.0234375 0 .0390625.0454102.0390625.0825195v.9907227c0 .0527344-.0302734.0825195-.0527344.0825195h-2.5263672c-.0195313 0-.0390625-.0527344-.0390625-.090332v-.9907227c0-.0449219.0224609-.074707.0390625-.074707h.5917969v-1.6889648h-.5712891c-.0371094 0-.0595703-.0229492-.0595703-.0751953v-.9379883c0-.090332.0224609-.1430664.0556641-.1430664h1.9111328c.0263672 0 .0429688.0375977.0429688.0756836v.6601563c.1357422-.3452148.4824219-.7583008.8671875-.7583008h.2275391z"/><path d="m38.3447266 26.8881836c-.1953125 0-1.3125-.0527344-1.3125-1.0507813 0-.690918.4326172-.9003906.5585938-.9003906.1679688 0 .5820313.074707.8134766.7802734.0371094.0151367.1191406.0151367.1386719.0151367.0996094 0 .1396484-.1201172.1396484-.2329102 0-.1347656-.0205078-.2021484-.0527344-.2851563l-1.0322266-2.4023438h-.6416016c-.0361328 0-.0595703-.0297852-.0595703-.074707v-.9155273c0-.090332.0234375-.1430664.0566406-.1430664h2.6982422c.0263672 0 .0458984.0375977.0458984.0756836v.9453125c0 .0522461-.0068359.1123047-.0195313.1123047h-.4794922l.5351563 1.246582.5458984-1.246582h-.4238281c-.0224609 0-.0292969-.0371094-.0292969-.074707v-.9912109c0-.0297852.015625-.0673828.0332031-.0673828h1.8642578c.0175781 0 .0332031.0229492.0332031.0527344v.9833984c0 .0371094-.0136719.097168-.0195313.097168h-.5595703l-1.4375 3.2133789c-.0400391.0893555-.4335938.862793-.8759766.862793z"/></g><path d="m48.3193359 60.0058594h-36.7373046c-1.378418 0-2.5-1.1210938-2.5-2.5v-47.3925781c0-1.378418 1.121582-2.5 2.5-2.5h36.7373047c.9775391 0 2.4033203-.5649414 3.1142578-1.2338867l1.1845703-1.112793c.3935547-.3701172.7841797-.5576172 1.1621094-.5576172.5244141 0 1.1376953.4067383 1.1376953 1.5522461v47.3930664c0 1.2421875-.7089844 2.8818359-1.6142578 3.7333984l-1.1845703 1.1132813c-.897461.84375-2.5664063 1.5048828-3.7998048 1.5048828zm-36.7373046-51.3925781c-.8271484 0-1.5.6728516-1.5 1.5v47.3925781c0 .8271484.6728516 1.5 1.5 1.5h36.7373047c.9775391 0 2.4033203-.5644531 3.1142578-1.2333984l1.1845703-1.1132813c.7050781-.6621094 1.2998047-2.0380859 1.2998047-3.0048828v-47.3930664c0-.3930664-.1015625-.5371094-.1269531-.5517578-.0009766 0-.0009766 0-.0009766 0-.0908203 0-.2626953.0751953-.4863281.2856445l-1.1845703 1.112793c-.8974609.8442383-2.5664063 1.5053711-3.7998047 1.5053711z" fill="#231815"/></svg>