<svg xmlns="http://www.w3.org/2000/svg" viewBox="0 0 1825.8112 182.4704"><defs><style>.a{fill:#d6703c;}.b{fill:#2a2a78;}.c{fill:#e9b457;}.d{fill:#151574;}.e{fill:#151674;}.f{fill:#1a3760;}</style></defs><path class="a" d="M70.6978,132.1981c-5.46,9.4786-10.9524,18.939-16.3542,28.4508-1.13,1.9887-2.1909,3.3545-4.8926,3.3319-16.28-.1363-32.5619-.0677-49.451-.0677,3.5134-6.0831,6.8743-11.851,10.186-17.6472,6.5823-11.52,13.12-23.0659,19.7081-34.5832,7.8073-13.649,15.6721-27.2651,23.4653-40.922,6.6062-11.5765,13.1188-23.2063,19.7254-34.7822,3.6774-6.4435,7.3734-12.8807,11.2821-19.1835a5.2548,5.2548,0,0,1,3.7436-2.1835c16.28-.1463,32.5618-.0964,49.4653-.0964-1.3009,2.3854-2.4112,4.5048-3.5969,6.5809q-8.8724,15.5348-17.7759,31.0516Q106.9309,68.3628,97.7,84.6022a31.7649,31.7649,0,0,0-1.5643,3.7971c-1.244,1.8855-2.5953,3.7092-3.7154,5.6653Q81.5172,113.1071,70.6978,132.1981Z" transform="translate(0 -14.4652)"></path><path class="b" d="M114.6488,119.367q11.0525-19.0682,22.1059-38.1356c7.4479-12.8388,14.937-25.6537,22.3445-38.5156,4.9546-8.6025,9.7983-17.2689,14.6917-25.9067,1.9149-.5037,3.8259-1.4261,5.7454-1.4439,13.7057-.1267,27.4132-.0511,41.12-.0983a26.7746,26.7746,0,0,0,4.0453-.6189l2.3445-.1828L142.4641,161.6209a51.46,51.46,0,0,1-5.7268,1.469c-2.7205.3907-5.4846.4783-8.23.6955l-1.5948.0015-22.2747-.0032-2.3632.0042-12.9838-.6537Z" transform="translate(0 -14.4652)"></path><path class="c" d="M234.9751,66.512l56.8643,97.3873H287.514c-15.0029.0012-30.0059-.0321-45.0083.0407a4.865,4.865,0,0,1-4.9032-2.7188c-9.2594-16.1261-18.68-32.16-27.9653-48.2709a3.9025,3.9025,0,0,1-.265-3.2366c7.6533-13.4025,15.4249-26.7371,23.201-40.0691A34.8248,34.8248,0,0,1,234.9751,66.512Z" transform="translate(0 -14.4652)"></path><path class="c" d="M114.6488,119.367,89.291,163.1347a.845.845,0,0,0-.1291.6836q-6.2152-10.5648-12.426-21.1326c-2.0377-3.4811-4.0268-6.9906-6.0377-10.4874Q81.551,113.1267,92.4209,94.065c1.12-1.9561,2.4716-3.78,3.7154-5.6653,2.8075,4.577,5.66,9.1276,8.4116,13.7387C107.9586,107.8549,111.2855,113.6217,114.6488,119.367Z" transform="translate(0 -14.4652)"></path><path class="d" d="M143.5753,14.532a26.7759,26.7759,0,0,1-4.0454.6189c-13.7067.0472-27.4141-.0284-41.12.0983-1.9194.0177-3.8305.94-5.7454,1.4439,1.0651-.7585,2.1259-2.17,3.196-2.1772C111.7647,14.4119,127.67,14.4939,143.5753,14.532Z" transform="translate(0 -14.4652)"></path><path class="e" d="M104.6376,163.7837l22.2747.0032Z" transform="translate(0 -14.4652)"></path><path class="e" d="M128.5072,163.7854c2.7455-.2172,5.51-.3048,8.23-.6955a51.46,51.46,0,0,0,5.7268-1.469c-.9393.7577-1.8428,2.1072-2.825,2.1674C135.9422,164.0149,132.22,163.8215,128.5072,163.7854Z" transform="translate(0 -14.4652)"></path><path class="e" d="M89.1615,163.8179a.8451.8451,0,0,1,.1291-.6836l12.9838.6536Z" transform="translate(0 -14.4652)"></path><path class="f" d="M409.8288,27.2139l45.9273,118.3134q2.6447,6.8043,5.9536,9.3555a11.5307,11.5307,0,0,0,5.9536,2.7412v3.7793q-5.67-.3765-13.3247-.4726-7.6545-.0924-15.4033-.0938-8.6961,0-16.4434.0938-7.752.0981-12.2847.4726V157.624q9.6387-.3778,12.19-3.3076,2.5509-2.9282-1.2285-12.5684l-32.13-87.8852,3.4018-4.9141-28.728,74.8443q-4.16,10.3959-5.0083,17.01-.8511,6.6182.9448,10.2061a9.8766,9.8766,0,0,0,5.8589,5.0078,32.96,32.96,0,0,0,9.7334,1.6074v3.7793q-6.2365-.3765-11.9067-.4726-5.67-.0924-11.5293-.0938-4.16,0-7.8433.0938a62.8022,62.8022,0,0,0-6.5205.4726V157.624q3.969-.7543,8.127-5.1035,4.155-4.3448,8.1269-14.7422L396.7883,27.2139q3.0206.19,6.5205.1889Q406.8032,27.4028,409.8288,27.2139Zm13.2305,79.7578v3.78H366.737l1.89-3.78Z" transform="translate(0 -14.4652)"></path><path class="f" d="M584.4655,27.5918v3.78q-4.1594,1.5153-8.7885,6.6152-4.6333,5.1028-8.6,15.876l-39.879,107.9184a25.7826,25.7826,0,0,0-3.2128-.1884H517.37a25.7507,25.7507,0,0,0-3.2129.1884L465.9626,43.4678q-2.6492-6.8043-5.8594-9.3555a11.2034,11.2034,0,0,0-6.0478-2.7407v-3.78q5.67.1905,13.3247.3779,7.6545.19,15.4033.189,8.691,0,16.3486-.189,7.6547-.186,12.3794-.3779v3.78a31.8441,31.8441,0,0,0-9.45,1.418,5.2266,5.2266,0,0,0-3.78,4.5356q-.381,3.309,2.268,9.9228l34.398,87.5069-3.9693,4.7246L557.06,69.1719q5.1034-14.1753,5.292-22.3023.186-8.124-3.9688-11.7177-4.1594-3.5881-11.9072-3.78v-3.78q6.4233.1905,12.0962.3779,5.67.19,11.5288.189,4.155,0,7.8437-.189Q581.6307,27.7837,584.4655,27.5918Z" transform="translate(0 -14.4652)"></path><path class="f" d="M582.197,196.9355v-3.78a26.7515,26.7515,0,0,0,12.852-4.4414q5.29-3.6856,8.127-12.5684,2.8351-8.8857,2.8349-24.9482V47.626a37.3208,37.3208,0,0,0-1.039-10.3008,6.8435,6.8435,0,0,0-4.064-4.5356,27.8026,27.8026,0,0,0-9.0718-1.418v-3.78q4.722.1905,12.3794.3779,7.6546.19,16.16.189t16.5376-.189q8.031-.186,13.3242-.3779v3.78A28.0856,28.0856,0,0,0,641.26,32.79a6.8147,6.8147,0,0,0-4.1577,4.5356q-1.0416,3.309-1.04,10.3008v85.9q0,8.9779-.6616,17.4824a77.3487,77.3487,0,0,1-2.5513,15.12q-3.7828,13.04-16.3486,21.9238Q603.9294,196.9341,582.197,196.9355Z" transform="translate(0 -14.4652)"></path><path class="f" d="M760.9885,25.1348q11.15,0,17.1992,2.3628a67.1989,67.1989,0,0,1,10.395,5.0083q2.2683,1.3242,3.6856,1.9843a6.434,6.434,0,0,0,2.74.6617,2.8663,2.8663,0,0,0,2.7407-2.0791,27.1588,27.1588,0,0,0,1.4175-6.2369h4.3472q-.1905,3.5927-.4727,8.6-.2834,5.01-.3779,13.1353-.0975,8.1284-.0947,21.3569h-4.3467a63.1077,63.1077,0,0,0-4.5361-19.0888A39.376,39.376,0,0,0,783.007,35.6245a24.9927,24.9927,0,0,0-16.9155-5.9536q-9.0717,0-14.9307,5.103-5.8608,5.1029-5.8593,14.1748a21.9485,21.9485,0,0,0,3.78,12.9468,44.5048,44.5048,0,0,0,11.0567,10.4893q7.2729,5.102,17.6714,12.2851a182.2344,182.2344,0,0,1,16.2539,11.7178,49.6171,49.6171,0,0,1,11.5288,13.23,33.9973,33.9973,0,0,1,4.3472,17.5771q0,12.4746-6.52,20.6016a39.6014,39.6014,0,0,1-17.1045,12.19,64.3893,64.3893,0,0,1-23.2471,4.0635q-11.721,0-18.7109-2.2686a77.3723,77.3723,0,0,1-11.7178-4.7246q-4.16-2.644-6.4263-2.6464a2.8677,2.8677,0,0,0-2.74,2.0791,27.2192,27.2192,0,0,0-1.4175,6.2373h-4.3472q.3765-4.5367.4727-10.584.093-6.0469.1889-15.7813.0932-9.7325.0943-24.665h4.3472a94.4452,94.4452,0,0,0,4.2524,23.3418,39.2832,39.2832,0,0,0,10.7729,17.4824q7.2738,6.6182,19.3726,6.6152a28.2385,28.2385,0,0,0,11.8125-2.3623,19.9934,19.9934,0,0,0,8.4106-7.0879,20.3631,20.3631,0,0,0,3.2129-11.7177,25.3673,25.3673,0,0,0-3.6855-13.7969,45.0273,45.0273,0,0,0-10.0171-10.9619,162.524,162.524,0,0,0-14.6475-10.3955q-8.8857-5.8565-16.6318-11.7178a48.6884,48.6884,0,0,1-12.3794-13.4189,33.6754,33.6754,0,0,1-4.6309-17.9551q0-11.907,5.9537-19.5615a35.1516,35.1516,0,0,1,15.687-11.34A57.9445,57.9445,0,0,1,760.9885,25.1348Z" transform="translate(0 -14.4652)"></path><path class="f" d="M896.69,24.9458q20.03,0,35.06,8.127a57.0929,57.0929,0,0,1,23.3408,23.3418q8.3145,15.2152,8.3164,36.9487,0,21.17-8.5048,37.0439a62.1184,62.1184,0,0,1-23.625,24.76q-15.1231,8.8857-34.7764,8.8828-20.0348,0-35.06-8.1269A56.9053,56.9053,0,0,1,838.1,132.4863q-8.3188-15.309-8.3164-36.8545,0-21.1654,8.6-37.0439a62.9855,62.9855,0,0,1,23.625-24.7593Q877.0334,24.9472,896.69,24.9458Zm-.7558,3.4019q-10.5879,0-18.4277,8.5053-7.8458,8.5048-12.0958,23.4356-4.2523,14.9319-4.2529,34.5874,0,20.0346,4.8194,34.87,4.8192,14.8389,13.041,22.8691,8.2221,8.0348,18.2383,8.0323,10.5834,0,18.4277-8.5049,7.8412-8.5048,12.0957-23.53t4.2529-34.4932q0-20.2206-4.8193-34.9643-4.8193-14.7422-13.041-22.7744T895.9343,28.3477Z" transform="translate(0 -14.4652)"></path><path class="f" d="M1039.9528,27.5918v3.78a32.2376,32.2376,0,0,0-9.7334,1.418,7.0811,7.0811,0,0,0-4.4414,4.5356q-1.1337,3.309-1.1338,10.3008v96.0117a32.6413,32.6413,0,0,0,.8506,8.6943,5.4216,5.4216,0,0,0,3.4014,3.7793,23.3132,23.3132,0,0,0,7.6543.9453h9.2617a25.3157,25.3157,0,0,0,12.0957-3.0244,33.457,33.457,0,0,0,10.2061-8.6,49.317,49.317,0,0,0,7.56-13.3242,83.712,83.712,0,0,0,4.5362-17.1992h4.3476q-.5684,6.4277-.5673,16.6328,0,4.3491.1884,12.6621.1861,8.32,1.1348,17.1992-9.64-.3765-21.7354-.4726-12.0966-.0924-21.5459-.0938h-12.0957q-7.371,0-15.8759.0938-8.505.0981-17.1993.1894-8.6952.0967-16.4433.2832V157.624a33.38,33.38,0,0,0,9.0723-1.5127,6.5743,6.5743,0,0,0,4.0634-4.5361,37.4344,37.4344,0,0,0,1.0391-10.2061V47.626q0-6.99-1.0391-10.3008a6.822,6.822,0,0,0-4.1582-4.5356,28.0979,28.0979,0,0,0-8.9775-1.418v-3.78q4.7226.1905,12.7578.3779,8.03.19,17.1045.189,8.3145,0,16.3486-.189Q1034.6588,27.7837,1039.9528,27.5918Z" transform="translate(0 -14.4652)"></path><path class="f" d="M1219.3151,27.5918v3.78q-6.0512.7581-9.1669,3.1186-3.1187,2.3658-4.0635,7.4654a83.4729,83.4729,0,0,0-.9453,14.3642v50.0845a137.2611,137.2611,0,0,1-1.7,22.4912,50.791,50.791,0,0,1-6.0489,17.5772,34.0658,34.0658,0,0,1-14.3632,12.8515q-9.4527,4.7228-24.003,4.7256a83.04,83.04,0,0,1-17.7666-1.9844,40.792,40.792,0,0,1-16.2539-7.4658,36.2808,36.2808,0,0,1-9.2607-11.5293,47.4166,47.4166,0,0,1-4.3467-15.2139,165.7547,165.7547,0,0,1-1.1348-20.8847V47.626q0-6.99-1.039-10.3008a6.844,6.844,0,0,0-4.0635-4.5356,27.806,27.806,0,0,0-9.0723-1.418v-3.78q4.7227.1905,12.7578.3779,8.03.19,16.7266.189,8.691,0,16.7266-.189,8.03-.186,13.3242-.3779v3.78a32.2365,32.2365,0,0,0-9.7334,1.418,7.0806,7.0806,0,0,0-4.4414,4.5356q-1.1338,3.309-1.1338,10.3008v71.2529a101.0987,101.0987,0,0,0,1.2285,16.7266,34.0445,34.0445,0,0,0,4.1572,12.0957,18.6793,18.6793,0,0,0,8.0332,7.2763,29.0721,29.0721,0,0,0,12.6631,2.4571q13.2261,0,20.6953-6.2373,7.4634-6.236,10.584-17.293a93.89,93.89,0,0,0,3.1182-25.4209V58.5879q0-10.3923-1.3233-15.9707-1.3242-5.5723-5.1972-8.0322-3.876-2.4545-11.8125-3.2134v-3.78q3.5889.1905,9.45.3779,5.8564.19,10.9619.189,4.5366,0,8.9775-.189Q1216.2878,27.7837,1219.3151,27.5918Z" transform="translate(0 -14.4652)"></path><path class="f" d="M1348.0222,27.5918q-.7574,9.6387-1.0391,18.522-.2841,8.8857-.2842,13.6079,0,4.1594.1895,7.938.186,3.7829.3779,6.4262H1342.92q-3.0262-15.8758-7.6552-25.1372-4.6334-9.2577-11.0557-13.1352a28.7454,28.7454,0,0,0-15.12-3.8745h-4.3477V139.8574q0,7.5615,1.6065,11.34a8.5873,8.5873,0,0,0,5.9541,5.0088,53.7505,53.7505,0,0,0,12.6631,1.4179v3.7793q-5.861-.186-15.5928-.3779-9.7368-.186-20.3174-.1885-10.396,0-19.6562.1885-9.2623.19-14.9307.3779V157.624a54.7511,54.7511,0,0,0,12.8516-1.4179,8.32,8.32,0,0,0,5.8593-5.0088q1.51-3.7779,1.5117-11.34V31.939h-4.1582a28.731,28.731,0,0,0-15.12,3.8745q-6.4263,3.876-10.9619,13.041-4.5351,9.1692-7.9375,25.2314h-4.3467a56.8981,56.8981,0,0,0,.4717-6.4262q.0938-3.7786.0947-7.938,0-4.722-.2832-13.6079-.2841-8.8813-1.04-18.522,8.6909.1905,18.9951.3779,10.2993.19,20.6953.189h37.5166q10.2993,0,20.6953-.189Q1339.7029,27.7837,1348.0222,27.5918Z" transform="translate(0 -14.4652)"></path><path class="f" d="M1421.7331,27.5918v3.78a28.77,28.77,0,0,0-9.167,1.418,6.5483,6.5483,0,0,0-4.0635,4.5356,40.7209,40.7209,0,0,0-.9443,10.3008v93.7431a37.3145,37.3145,0,0,0,1.0391,10.2061,6.5526,6.5526,0,0,0,4.1582,4.5361,33.9671,33.9671,0,0,0,8.9775,1.5127v3.7793q-5.1035-.3765-12.8525-.4726-7.752-.0924-15.6865-.0938-9.0719,0-17.01.0938-7.938.0981-12.8526.4726V157.624a33.378,33.378,0,0,0,9.0723-1.5127,6.5742,6.5742,0,0,0,4.0635-4.5361,37.4344,37.4344,0,0,0,1.0391-10.2061V47.626q0-6.99-1.0391-10.3008a6.822,6.822,0,0,0-4.1582-4.5356,28.0986,28.0986,0,0,0-8.9776-1.418v-3.78q4.9131.1905,12.8526.3779,7.938.19,17.01.189,7.9379,0,15.6865-.189Q1416.6281,27.7837,1421.7331,27.5918Z" transform="translate(0 -14.4652)"></path><path class="f" d="M1505.4587,24.9458q20.03,0,35.06,8.127a57.0929,57.0929,0,0,1,23.3408,23.3418q8.3145,15.2152,8.3164,36.9487,0,21.17-8.5049,37.0439a62.1178,62.1178,0,0,1-23.625,24.76q-15.123,8.8857-34.7764,8.8828-20.0346,0-35.0595-8.1269a56.9047,56.9047,0,0,1-23.3408-23.4366q-8.3188-15.309-8.3164-36.8545,0-21.1654,8.6-37.0439a62.9855,62.9855,0,0,1,23.625-24.7593Q1485.802,24.9472,1505.4587,24.9458Zm-.7559,3.4019q-10.5879,0-18.4277,8.5053-7.8458,8.5048-12.0957,23.4356-4.2525,14.9319-4.2529,34.5874,0,20.0346,4.8193,34.87,4.8193,14.8389,13.041,22.8691,8.2222,8.0348,18.2383,8.0323,10.5835,0,18.4277-8.5049,7.8414-8.5048,12.0957-23.53t4.253-34.4932q0-20.2206-4.8194-34.9643-4.8193-14.7422-13.041-22.7744T1504.7028,28.3477Z" transform="translate(0 -14.4652)"></path><path class="f" d="M1713.737,27.5918v3.78q-6.05.7581-9.0713,3.1186-3.0262,2.3658-4.0634,7.4654a76.0844,76.0844,0,0,0-1.04,14.3642V161.7812q-2.2676-.19-4.63-.1884-2.3656,0-5.0088.1884L1607.8972,57.832v72.5752a85.2321,85.2321,0,0,0,1.1347,15.9707q1.1339,5.5767,5.0079,7.9385,3.8715,2.3643,12.19,3.3076v3.7793q-3.5917-.3765-9.45-.4726-5.8594-.0924-10.9619-.0938-4.3491,0-8.8828.0938-4.5352.0981-7.56.4726V157.624q6.0468-.9449,9.0713-3.2138,3.0219-2.2677,4.0644-7.4649a76.6652,76.6652,0,0,0,1.0391-14.2695V47.626a37.3356,37.3356,0,0,0-1.0391-10.3008,6.822,6.822,0,0,0-4.1582-4.5356,28.103,28.103,0,0,0-8.9775-1.418v-3.78q3.0205.1905,7.56.3779,4.5366.19,8.8828.189,4.5366,0,8.6943-.189,4.1557-.186,7.56-.3779l73.1435,90.1523V58.5879a85.3747,85.3747,0,0,0-1.1338-15.9707q-1.1337-5.5723-5.0087-8.0322-3.876-2.4545-12.1905-3.2134v-3.78q3.5874.1905,9.45.3779,5.855.19,10.9619.189,4.5353,0,8.9776-.189Q1710.7107,27.7837,1713.737,27.5918Z" transform="translate(0 -14.4652)"></path><path class="f" d="M1776.86,25.1348q11.15,0,17.1992,2.3628a67.1741,67.1741,0,0,1,10.3945,5.0083q2.2691,1.3242,3.6856,1.9843a6.44,6.44,0,0,0,2.7412.6617,2.8666,2.8666,0,0,0,2.74-2.0791,27.1366,27.1366,0,0,0,1.417-6.2369h4.3477q-.1905,3.5927-.4727,8.6-.2842,5.01-.3779,13.1353-.0983,8.1284-.0948,21.3569h-4.3466a63.1049,63.1049,0,0,0-4.5362-19.0888,39.3747,39.3747,0,0,0-10.6787-15.2144,24.9927,24.9927,0,0,0-16.915-5.9536q-9.0719,0-14.9317,5.103t-5.8584,14.1748a21.9516,21.9516,0,0,0,3.7793,12.9468A44.5223,44.5223,0,0,0,1776.01,72.3848q7.2744,5.102,17.6719,12.2851a182.2344,182.2344,0,0,1,16.2539,11.7178,49.6281,49.6281,0,0,1,11.5293,13.23,34.0078,34.0078,0,0,1,4.3466,17.5771q0,12.4746-6.5205,20.6016a39.6,39.6,0,0,1-17.1045,12.19,64.3849,64.3849,0,0,1-23.247,4.0635q-11.72,0-18.711-2.2686a77.3493,77.3493,0,0,1-11.7177-4.7246q-4.16-2.644-6.4258-2.6464a2.8684,2.8684,0,0,0-2.7412,2.0791,27.2773,27.2773,0,0,0-1.417,6.2373h-4.3477q.378-4.5367.4727-10.584t.1894-15.7813q.0924-9.7325.0948-24.665h4.3466a94.45,94.45,0,0,0,4.253,23.3418,39.278,39.278,0,0,0,10.7724,17.4824q7.2731,6.6182,19.3731,6.6152a28.2451,28.2451,0,0,0,11.8125-2.3623,19.9956,19.9956,0,0,0,8.41-7.0879,20.3669,20.3669,0,0,0,3.2129-11.7177,25.3673,25.3673,0,0,0-3.6855-13.7969,45.0368,45.0368,0,0,0-10.0166-10.9619,162.6668,162.6668,0,0,0-14.6475-10.3955q-8.8872-5.8565-16.6328-11.7178a48.6864,48.6864,0,0,1-12.3789-13.4189,33.679,33.679,0,0,1-4.6309-17.9551q0-11.907,5.9541-19.5615a35.1448,35.1448,0,0,1,15.6866-11.34A57.9441,57.9441,0,0,1,1776.86,25.1348Z" transform="translate(0 -14.4652)"></path></svg>