<svg width="129" height="35" viewBox="0 0 129 35" fill="none" xmlns="http://www.w3.org/2000/svg">
<g id="Layer_1" clip-path="url(#clip0_819_897)">
<path id="Vector" d="M3.84543 31.5255V14.5313H11.0571V11.0568H3.84543V3.71712H12.5028V0.242615H0V35.0041H12.9819V31.5296H3.84543V31.5255Z" fill="#E5124B"/>
<path id="Vector_2" d="M31.3489 0.242615H27.5977V2.89886C27.5977 6.5214 26.6353 8.49919 24.9071 10.7196C23.0315 8.49919 22.1674 6.5214 22.1674 2.89886V0.242615H18.3179V1.98192C18.3179 7.19574 19.6652 9.89722 22.3558 13.1332C19.2311 16.6571 18.3179 18.639 18.3179 23.273V35.0041H22.0691V22.7426C22.0691 18.9762 22.8882 17.7221 24.858 15.4523C26.6844 17.7221 27.4052 18.9762 27.4052 22.7426V35.0041H31.2506V23.273C31.2506 18.6883 30.4316 16.8545 27.3561 13.0387C29.9033 9.85199 31.3448 6.71465 31.3448 1.98192V0.242615H31.3489Z" fill="#E5124B"/>
<path id="Vector_3" d="M37.4058 35H41.157V25.5386C41.157 23.6061 41.3495 20.4687 42.1194 16.0279L43.995 5.26313C44.2366 3.81577 44.4291 3.57317 44.8591 3.57317C45.2891 3.57317 45.4857 3.81166 45.7232 5.26313L47.5988 16.0279C48.3687 20.4687 48.5612 23.6061 48.5612 25.5386V35H52.4107V26.7434C52.4107 23.9926 52.2182 20.1768 51.2559 15.0617L49.282 4.39554C48.7045 1.35277 47.5988 0.00408936 45.629 0.00408936H44.1875C42.2177 0.00408936 41.112 1.35689 40.5345 4.39554L38.5647 15.0617C37.6023 20.1809 37.4099 23.9926 37.4099 26.7434V35H37.4058Z" fill="#E5124B"/>
<path id="Vector_4" d="M62.3132 31.5255V0.242615H58.4678V35.0041H71.9329V31.5296H62.3132V31.5255Z" fill="#E5124B"/>
<path id="Vector_5" d="M80.4877 31.5255V14.5313H87.6994V11.0568H80.4877V3.71712H89.1409V0.242615H76.6382V35.0041H89.6201V31.5296H80.4877V31.5255Z" fill="#E5124B"/>
<path id="Vector_6" d="M94.9602 35H98.8056V3.71712H102.602C104.428 3.71712 105.44 4.6834 105.776 8.40051C105.968 10.5716 106.017 13.0839 106.017 15.6908V35.0041H109.863V15.5469C109.863 12.8413 109.863 9.84788 109.572 7.19574C109.044 2.22452 107.025 0.242615 103.372 0.242615H94.9561V35.0041L94.9602 35Z" fill="#E5124B"/>
<path id="Vector_7" d="M129 0.242615H113.614V3.71712H119.384V35H123.23V3.71712H129V0.242615Z" fill="#E5124B"/>
</g>
<defs>
<clipPath id="clip0_819_897">
<rect width="129" height="35" fill="white"/>
</clipPath>
</defs>
</svg>
